<svg width="28" height="20" viewBox="0 0 28 20" fill="none" xmlns="http://www.w3.org/2000/svg">
<path d="M26.5646 8.63889H1.07986C0.483454 8.63889 0 9.12234 0 9.71875C0 10.3152 0.483454 10.7986 1.07986 10.7986H26.5646C27.161 10.7986 27.6444 10.3152 27.6444 9.71875C27.6444 9.12234 27.161 8.63889 26.5646 8.63889Z" fill="white"/>
<path d="M26.5646 0H1.07986C0.483454 0 0 0.483454 0 1.07986C0 1.67627 0.483454 2.15972 1.07986 2.15972H26.5646C27.161 2.15972 27.6444 1.67627 27.6444 1.07986C27.6444 0.483454 27.161 0 26.5646 0Z" fill="white"/>
<path d="M26.5646 17.2778H1.07986C0.483454 17.2778 0 17.7612 0 18.3576C0 18.954 0.483454 19.4375 1.07986 19.4375H26.5646C27.161 19.4375 27.6444 18.954 27.6444 18.3576C27.6444 17.7612 27.161 17.2778 26.5646 17.2778Z" fill="white"/>
</svg>
