<svg xmlns="http://www.w3.org/2000/svg" viewBox="0 0 528.3 464.6"><defs><style>.cls-1{fill:#374e59;fill-rule:evenodd;}</style></defs><title>Asset 4</title><g id="Layer_2" data-name="Layer 2"><g id="Layer_1-2" data-name="Layer 1"><path class="cls-1" d="M0,0V464.6H528.3V0ZM405.75,270c-6,5.51-11.56,10.55-12.06,19.07,0,2.52-3,4.54-6.08,6.05-5.11-1.13-9.26-4.46-13.53-7.89-3.36-2.7-6.79-5.46-10.81-7.24-3-1.41-6.22-2.57-9.46-3.75-6-2.19-12.14-4.42-17.41-8.35a4,4,0,0,0-3.78,1.41,5.12,5.12,0,0,1-2.81,1.62c-9.63-2-19.77-3.54-29.91-.51-3.27,1.08-7,.88-10.8.67-1.49-.08-3-.16-4.41-.16a80,80,0,0,0-23.33,3C248.69,297.6,234,321.3,214.72,342c-7.1,2-11.66-2-16.22-7.07a23.48,23.48,0,0,1-1.92-2.24c-1.24-1.57-2.48-3.13-4.17-3.81-7.73-3.46-14-8.38-20.12-13.21-1.91-1.51-3.81-3-5.74-4.44-12.67-8.57-26.36-14.12-41.57-18.15a4.28,4.28,0,0,0-.93-.61c-.55-.3-1.1-.6-1.1-.91-1-2.52-.51-4,1.52-5a9.46,9.46,0,0,1,3.55-1,41.82,41.82,0,0,0,24.34-6.05,7.72,7.72,0,0,1,3.37-.09c.47,0,.9.09,1.19.09,2.5,1.87,3.27,4.12,4.08,6.51a20.38,20.38,0,0,0,2,4.58c5.61,3.94,12.07,6.17,18.42,8.36,3.41,1.17,6.78,2.34,10,3.75,3.95,1.43,8.16.32,12.44-.8,1.76-.46,3.53-.93,5.3-1.22l1.12-3.86c1.65-5.64,3.22-11.06,4.47-16.82.09-.84.2-1.66.31-2.47.48-3.56.93-6.85-.31-10.14-1.53-4.53-.51-8.57,1-12.1-1-3.53-2-7.06-4.57-9.08-.5-6.55,2.54-10.08,6.09-13.11-3.53-8.33-.15-15.14,3.12-21.75.49-1,1-2,1.44-3,3-7.57,4.16-15.13,5.36-22.69.24-1.52.48-3,.73-4.54-4.06-3.71-8.58-5.84-12.94-7.9-2.17-1-4.3-2-6.32-3.2l-.53-.28c-1-.51-2.18-1.15-3-.73-5.94,2-11.88,1.48-18.55.93-1.87-.15-3.79-.31-5.78-.42-2-1-3.55-3.53-2-8.07,3.05-1.22,5.56-3.53,8.17-6a52.26,52.26,0,0,1,5.52-4.64c7.74,5.6,16.46,7.56,25.48,9.58,4,.89,8,1.79,12,3,6.09-3,13.19-2,20.79,0,4.9-6.62,4.24-13.24,3.54-20.36a66.67,66.67,0,0,1-.49-9.9c8.61-6,19.26-8.57,29.9-11.09h0c3.55,1,7.09,2,11.66,3.53,2,5,6.59,8.58,11.66,11.1,4.56,8.58,5.58,13.62,4.56,22.19A28.16,28.16,0,0,1,297.37,165c5.07,2,8.62,2,11.66,0,7.27-3.94,15-6.17,22.55-8.37,4-1.17,8.05-2.33,11.93-3.73h0c3.55-1.52,7.09-3,10.14-6.05,4.05-6.05,9.62-8.57,16.22-9.08,3.55,1,6.59,2,8.62,6.05-8.16,4.87-16.65,9.74-24.68,14.35l-5.74,3.3c-2.38,1.32-4.71,2.7-7.05,4.07-10.12,6-20.14,11.85-32.5,13.08a9.74,9.74,0,0,0-4.57,1.5l-1,.52c-2.07,2.34-2.93,5.37-3.79,8.39a29.13,29.13,0,0,1-2.3,6.23c-1.68,1-3.58.9-5.6.83-2.26-.07-4.66-.14-7.07,1.19.62,8.06-2.59,15.36-6,23.08a95.24,95.24,0,0,0-5.69,15.25c6.24-.27,12.32-.65,18.3-1,16.37-1,31.88-2,47.11-.49,4.35,2.59,4.22,6.67,4.09,10.64,0,.66,0,1.32,0,2A176.51,176.51,0,0,1,361.24,260c3.5,2.65,7,5.32,10.65,7.86,9.64,6.55,17.75,4.54,24.34-5.05a19.53,19.53,0,0,0,1.25-2.23c1.26-2.46,2.47-4.83,6.36-4.83,1.9,2.84,1.82,5.88,1.74,8.87a21.33,21.33,0,0,0,.28,5.25Z"/></g></g></svg>